HIERARCHY
ROOT Hips
{
  OFFSET 3.13124 94.3669 -3.18751
  CHANNELS  6 Xposition Yposition Zposition Zrotation Xrotation Yrotation
  JOINT LeftUpLeg
  {
    OFFSET 8.64259 1.95398 -2.38835
    CHANNELS 3 Zrotation Xrotation Yrotation
    JOINT LeftLeg
    {
      OFFSET 43.7702 0 0
      CHANNELS 3 Zrotation Xrotation Yrotation
      JOINT LeftFoot
      {
        OFFSET 40.6238 0 0
        CHANNELS 3 Zrotation Xrotation Yrotation
        JOINT LeftToeBase
        {
          OFFSET 12.7242 0 0
          CHANNELS 3 Zrotation Xrotation Yrotation
          End Site
          {
            OFFSET 0 0 0
          }
        }
      }
    }
  }
  JOINT RightUpLeg
  {
    OFFSET -8.2249 1.95398 -2.59336
    CHANNELS 3 Zrotation Xrotation Yrotation
    JOINT RightLeg
    {
      OFFSET 43.5653 0 0
      CHANNELS 3 Zrotation Xrotation Yrotation
      JOINT RightFoot
      {
        OFFSET 40.6238 0 0
        CHANNELS 3 Zrotation Xrotation Yrotation
        JOINT RightToeBase
        {
          OFFSET 12.7242 0 0
          CHANNELS 3 Zrotation Xrotation Yrotation
          End Site
          {
            OFFSET 0 0 0
          }
        }
      }
    }
  }
  JOINT Spine
  {
    OFFSET 0.165834 0.87714 6.61349
    CHANNELS 3 Zrotation Xrotation Yrotation
    JOINT Spine1
    {
      OFFSET 7.38962 1.71661e-005 0
      CHANNELS 3 Zrotation Xrotation Yrotation
      JOINT Spine2
      {
        OFFSET 11.9445 1.14441e-005 0
        CHANNELS 3 Zrotation Xrotation Yrotation
        JOINT Spine3
        {
          OFFSET 14.7254 4.19617e-005 0
          CHANNELS 3 Zrotation Xrotation Yrotation
          JOINT Spine4
          {
            OFFSET 10.9679 0 0
            CHANNELS 3 Zrotation Xrotation Yrotation
            JOINT RightShoulder
            {
              OFFSET 2.46616 -1.6653 3.69651
              CHANNELS 3 Zrotation Xrotation Yrotation
              JOINT RightArm
              {
                OFFSET 13.0012 0 0
                CHANNELS 3 Zrotation Xrotation Yrotation
                JOINT RightForeArm
                {
                  OFFSET 28.7848 1.52588e-005 0
                  CHANNELS 3 Zrotation Xrotation Yrotation
                  JOINT RightHand
                  {
                    OFFSET 26.5688 1.52588e-005 0
                    CHANNELS 3 Zrotation Xrotation Yrotation
                    End Site
                    {
                      OFFSET 0 0 0
                    }
                  }
                }
              }
            }
            JOINT LeftShoulder
            {
              OFFSET 2.38034 -1.29275 -3.75231
              CHANNELS 3 Zrotation Xrotation Yrotation
              JOINT LeftArm
              {
                OFFSET 16.3182 6.10352e-005 0
                CHANNELS 3 Zrotation Xrotation Yrotation
                JOINT LeftForeArm
                {
                  OFFSET 27.0901 0 0
                  CHANNELS 3 Zrotation Xrotation Yrotation
                  JOINT LeftHand
                  {
                    OFFSET 24.5451 1.52588e-005 0
                    CHANNELS 3 Zrotation Xrotation Yrotation
                    End Site
                    {
                      OFFSET 0 0 0
                    }
                  }
                }
              }
            }
            JOINT Neck
            {
              OFFSET 5.0226 -0.0266342 0
              CHANNELS 3 Zrotation Xrotation Yrotation
              JOINT Head
              {
                OFFSET 6.69363 2.86102e-005 0
                CHANNELS 3 Zrotation Xrotation Yrotation
                End Site
                {
                  OFFSET 0 0 0
                }
              }
            }
          }
        }
      }
    }
  }
}
MOTION
Frames:	9
Frame Time:	0.0333333
1.21682 97.1363 -6.79851 172.366 -89.9946 172.343 -171.377 3.14821 91.2695 -9.85707 8.4313 1.42648 63.8481 1.3931 0.722256 28.7808 6.04754e-006 3.07037e-006 168.587 2.72511 91.6888 -10.1015 -11.1657 -0.636267 63.9251 -1.73412 -0.92736 28.7808 1.33842e-005 2.34416e-005 -0.00185971 6.34018 -89.9769 14.1935 -1.56618e-006 -1.35471e-006 2.52251 2.11602e-006 -4.64392e-006 -20.0126 1.1716e-006 2.89037e-006 -1.59028e-015 3.49426e-018 7.76503e-019 100.876 -18.4928 -85.3662 15.4551 45.8372 -40.4602 -3.27478 0.00468485 -4.91075 -5.37982 -0.320016 -0.0162373 -78.8919 -21.4106 94.5223 10.361 -39.4259 -18.4426 2.15066 40.4655 -9.06938 -0.635692 0.0139632 1.99446 1.75106 -0.00232909 0.00215123 -7.40882 -0.00174863 -0.00363125 
1.19966 97.1351 -6.78581 104 -89.9768 103.968 -171.372 3.15361 91.2744 -9.88377 8.46488 1.42661 63.8481 1.33762 0.690066 28.7808 6.04754e-006 3.07037e-006 168.588 2.69308 91.6855 -10.0738 -11.1419 -0.636053 63.9841 -1.65414 -0.882747 28.7808 1.33842e-005 2.34416e-005 -0.00227498 6.34016 -89.9713 14.1935 4.4101e-005 -1.35471e-006 2.52251 4.76691e-005 -4.64392e-006 -20.0126 4.43821e-005 2.89037e-006 -1.18343e-024 4.36607e-005 1.55301e-018 100.921 -18.4795 -85.1878 15.4892 45.7852 -40.5068 -3.27478 0.00468485 -4.91075 -5.37982 -0.320016 -0.0162373 -78.8915 -21.4114 94.5769 10.4361 -39.4064 -18.4468 2.09413 40.4446 -9.08862 -0.607468 0.0139627 2.05395 1.70982 -0.0398531 0.0296812 -7.38069 -0.0281472 -0.0571873 
1.18449 97.136 -6.76932 100.728 -89.9684 100.706 -171.37 3.12423 91.2909 -9.84123 8.47924 1.42638 63.8632 1.37312 0.711397 28.7808 6.04754e-006 3.07037e-006 168.583 2.69903 91.7049 -10.1061 -11.1513 -0.620718 63.9059 -1.82975 -0.981333 28.7808 1.33842e-005 2.34416e-005 -0.00199677 6.34018 -89.9809 14.1935 -0.000930856 6.4386e-005 2.52255 -0.000924306 0.00013186 -20.0126 -0.000910275 -0.000419568 3.63874e-005 -0.000904869 -0.000422832 100.947 -18.5481 -85.0742 15.5043 45.7717 -40.5499 -3.27478 0.00468485 -4.91075 -5.37982 -0.320016 -0.0162373 -78.8894 -21.3351 94.6074 10.3602 -39.3872 -18.4531 2.12323 40.4318 -9.11507 -0.613087 0.0139619 2.14874 1.69511 -0.0745862 -0.0458636 -7.43149 -0.0285445 -0.0350054 
1.17434 97.1241 -6.7659 38.8652 -89.9306 38.8191 -171.41 3.16085 91.2567 -9.8008 8.43109 1.41971 63.8861 1.42592 0.742952 28.7808 6.04754e-006 3.07037e-006 168.571 2.7634 91.6943 -10.1159 -11.1382 -0.619521 63.9862 -1.74616 -0.933335 28.7808 1.33842e-005 2.34416e-005 -0.0127372 6.34105 -89.9961 14.1918 -0.0252389 -0.000368973 2.52083 -0.0252232 0.000734114 -20.0143 -0.0239405 -0.00792554 -0.00168167 -0.0239445 -0.00793477 101.023 -18.6015 -84.9957 15.5578 45.7136 -40.6848 -3.27478 0.00468485 -4.91075 -5.37982 -0.320016 -0.0162373 -78.782 -21.3055 94.7587 10.2692 -39.3347 -18.4446 2.12549 40.3708 -9.12004 -0.631962 0.013962 2.13686 1.76554 -0.0437064 -0.113247 -7.4805 -0.0247316 0.0899483 
1.11925 97.1281 -6.7327 175.098 -89.8674 175.148 -171.252 3.0355 91.4315 -9.93675 8.59209 1.41913 63.974 1.42492 0.741091 28.7808 6.04754e-006 3.07037e-006 168.511 2.60866 91.7197 -10.2367 -11.3378 -0.463792 63.807 -2.16422 -1.17269 28.7808 1.33842e-005 2.34416e-005 -0.00855839 6.3574 -89.975 14.159 -0.0164116 -0.0201391 2.48809 -0.0173124 -0.0193865 -20.0471 -0.0100538 -0.0242748 -0.0344214 -0.0100575 -0.0242881 101.012 -18.6532 -84.9989 15.5309 45.7033 -40.513 -3.27478 0.00468485 -4.91075 -5.37982 -0.320016 -0.0162373 -78.832 -21.2726 94.6648 10.2784 -39.3431 -18.3478 2.11915 40.388 -9.10065 -0.58128 0.0137244 2.30864 1.65319 -0.0581654 -0.19333 -7.4569 -0.0285005 0.0524527 
1.1363 97.1358 -6.71834 131.983 -89.9528 131.966 -171.343 3.08912 91.3312 -9.87707 8.48261 1.43252 63.8927 1.3422 0.694022 28.7808 6.04754e-006 3.07037e-006 168.583 2.62487 91.7217 -10.0884 -11.1786 -0.6125 63.9081 -1.79459 -0.961428 28.7808 1.33842e-005 2.34416e-005 -0.0164835 6.34797 -89.9798 14.1779 -0.0147037 0.00215507 2.50694 -0.0158335 0.00345628 -20.0282 -0.0291009 -0.00691631 -0.0155709 -0.0290924 -0.00691187 100.982 -18.7382 -85.0701 15.5103 45.7162 -40.4431 -3.27478 0.00468485 -4.91075 -5.37982 -0.320016 -0.0162373 -78.8332 -21.2954 94.6578 10.3579 -39.3096 -18.2232 2.08925 40.245 -9.12848 -0.637768 0.00982598 2.25149 1.51226 -0.0506639 -0.262133 -7.2874 -0.00254713 0.0793846 
1.12446 97.1321 -6.70312 -173.531 -89.9753 -173.542 -171.339 3.08485 91.3382 -9.88334 8.48232 1.43792 63.9345 1.40427 0.72967 28.7808 6.04754e-006 3.07037e-006 168.588 2.62231 91.7316 -10.0926 -11.1866 -0.607921 63.9663 -1.82546 -0.979494 28.7808 1.33842e-005 2.34416e-005 -0.0144299 6.33858 -89.9802 14.1967 -0.0155885 -0.00588374 2.52576 -0.0166777 -0.00468484 -20.0094 -0.0240756 -0.0137582 0.00325428 -0.0240764 -0.013753 100.955 -18.6896 -85.1606 15.4925 45.6857 -40.2767 -3.27478 0.00468485 -4.91075 -5.37982 -0.320016 -0.0162373 -78.8444 -21.3384 94.6199 10.299 -39.3003 -18.1792 2.18108 40.453 -9.11756 -0.702872 0.00398076 2.10969 1.30869 -0.0289435 -0.11298 -7.22633 -0.00661603 -0.0189747 
1.11184 97.1154 -6.69636 -106.355 -89.9866 -106.363 -171.357 3.0874 91.334 -9.8603 8.39501 1.43917 63.9947 1.43502 0.748898 28.7808 6.04754e-006 3.07037e-006 168.593 2.66132 91.7444 -10.1401 -11.1944 -0.60778 64.0098 -1.81083 -0.970897 28.7808 1.33842e-005 2.34416e-005 -0.0147946 6.34167 -89.9891 14.1905 -0.0177894 -0.00716141 2.51957 -0.0186859 -0.00587016 -20.0156 -0.0259133 -0.0156782 -0.00295584 -0.0259155 -0.0156844 100.956 -18.7216 -85.1494 15.5205 45.6412 -40.3058 -3.27478 0.00468485 -4.91075 -5.37982 -0.320016 -0.0162373 -78.8178 -21.461 94.6886 10.3031 -39.295 -18.2334 2.19869 40.4883 -9.1498 -0.832175 -0.0028084 2.14882 1.31211 -0.0286257 0.024095 -7.22494 -0.0197196 -0.0661154 
1.09533 97.142 -6.67928 -152.057 -89.9121 -152.053 -171.304 3.03151 91.3797 -9.92374 8.39673 1.42269 63.9806 1.36556 0.7077 28.7808 6.04754e-006 3.07037e-006 168.567 2.54117 91.7315 -10.0819 -11.2335 -0.578778 63.9733 -1.84649 -0.991568 28.7808 1.33842e-005 2.34416e-005 -0.0109425 6.34206 -89.9829 14.1896 -0.0200297 -0.0198523 2.51868 -0.0206991 -0.0188234 -20.0165 -0.0158762 -0.0258122 -0.00383144 -0.0158763 -0.0258167 100.897 -18.6989 -85.3047 15.4516 45.7154 -40.1383 -3.27478 0.00468485 -4.91075 -5.37982 -0.320016 -0.0162373 -78.9101 -21.5693 94.4828 10.4193 -39.2841 -18.0029 2.16425 40.3958 -9.13535 -0.862747 -0.00401069 2.18905 0.887633 -0.0121732 0.189255 -6.83983 -0.0259515 -0.144051 
